<svg width="26" height="24" viewBox="0 0 26 24" fill="none" xmlns="http://www.w3.org/2000/svg">
<path fill-rule="evenodd" clip-rule="evenodd" d="M22.5089 19.7315L24.1723 21.3949C24.6726 21.8952 24.6726 22.7039 24.1723 23.2042C23.9228 23.4537 23.5953 23.5791 23.2677 23.5791C22.9401 23.5791 22.6126 23.4537 22.3631 23.2042L18.8994 19.7405L18.1496 18.9907L16.4286 17.2697L16.3403 17.1814L13.1386 13.9796C13.1031 13.9816 13.0674 13.9826 13.0315 13.9826C11.9733 13.9826 11.1122 13.1215 11.1122 12.0633C11.1122 12.0274 11.1132 11.9917 11.1151 11.9562L6.99596 7.83703L4.75551 5.59658L1.89064 2.73171C1.39035 2.23142 1.39035 1.42276 1.89064 0.922463C2.39094 0.422167 3.1996 0.422167 3.69989 0.922463L5.89173 3.11429L7.76623 4.9888L12.9244 10.147C12.9598 10.145 12.9956 10.144 13.0315 10.144C14.0897 10.144 14.9508 11.0051 14.9508 12.0633C14.9508 12.0992 14.9498 12.1349 14.9478 12.1704L19.9589 17.1814L22.5089 19.7315ZM8.67188 4.08442L12.2507 7.66325C12.5053 7.61847 12.7638 7.5852 13.0312 7.5852C15.5007 7.5852 17.5096 9.59406 17.5096 12.0635C17.5096 12.331 17.4763 12.5894 17.4315 12.8441L20.8632 16.277L21.9303 17.3442C23.8778 15.5682 25.1266 13.6246 25.6576 12.6995C25.8828 12.3054 25.8828 11.8204 25.6576 11.4263C24.8413 10.0035 20.3322 2.87142 12.6858 3.11069C11.1708 3.15036 9.79914 3.47664 8.55544 3.96926L8.67188 4.08442ZM15.524 18.1757L17.245 19.8954L17.5073 20.1577C16.2636 20.6503 14.8932 20.9766 13.3782 21.015C13.2733 21.0189 13.1671 21.0201 13.0635 21.0201C5.5616 21.0201 1.21121 14.1043 0.405104 12.6994C0.179907 12.3053 0.179907 11.8203 0.405104 11.4262C0.936108 10.5024 2.18493 8.55881 4.13237 6.78283L6.09132 8.74307L8.63247 11.2829C8.5864 11.5376 8.55313 11.796 8.55313 12.0634C8.55313 14.5329 10.562 16.5418 13.0315 16.5418C13.2989 16.5418 13.5574 16.5085 13.812 16.4625L15.4357 18.0862L15.524 18.1757Z" fill="#575A65"/>
</svg>
