<svg width="26" height="18" viewBox="0 0 26 18" fill="none" xmlns="http://www.w3.org/2000/svg">
<path fill-rule="evenodd" clip-rule="evenodd" d="M12.7953 7.03942C11.7371 7.03942 10.876 7.90055 10.876 8.95872C10.876 10.0169 11.7371 10.878 12.7953 10.878C13.8534 10.878 14.7146 10.0169 14.7146 8.95872C14.7146 7.90055 13.8534 7.03942 12.7953 7.03942ZM12.7953 13.4371C10.3258 13.4371 8.31693 11.4282 8.31693 8.95872C8.31693 6.48923 10.3258 4.48037 12.7953 4.48037C15.2648 4.48037 17.2736 6.48923 17.2736 8.95872C17.2736 11.4282 15.2648 13.4371 12.7953 13.4371ZM25.4217 8.32153C24.604 6.8987 20.0963 -0.233389 12.4485 0.00588217C5.37657 0.186296 1.26161 6.41759 0.168898 8.32153C-0.0562992 8.71691 -0.0562992 9.20057 0.168898 9.59594C0.975 10.9996 5.32539 17.9154 12.8273 17.9154C12.9309 17.9154 13.0358 17.9142 13.142 17.9116C20.214 17.7312 24.3289 11.4999 25.4217 9.59594C25.6469 9.20057 25.6469 8.71691 25.4217 8.32153Z" fill="#575A65"/>
</svg>
